<svg xmlns="http://www.w3.org/2000/svg" fill="none" height="92" width="92" xmlns:v="https://vecta.io/nano"><path d="M0 0h91.562v91.562H0z" fill="#00d95f"/><g fill="#fff"><path d="M22.891 66.976l3.285-12.213c-2.649-4.758-3.491-10.309-2.37-15.637s4.127-10.072 8.469-13.365 9.727-4.911 15.168-4.56 10.572 2.651 14.453 6.475 6.249 8.917 6.672 14.344-1.129 10.824-4.371 15.201a22.66 22.66 0 0 1-13.276 8.627 22.69 22.69 0 0 1-15.692-2.164zm12.932-7.862l.763.452c3.476 2.057 7.537 2.908 11.548 2.421s7.749-2.286 10.63-5.115a18.27 18.27 0 0 0 5.297-10.527c.554-3.996-.232-8.063-2.235-11.567a18.3 18.3 0 0 0-8.839-7.804 18.34 18.34 0 0 0-11.773-.801c-3.905 1.037-7.357 3.335-9.818 6.536a18.26 18.26 0 0 0-3.785 11.158c-.003 3.345.923 6.626 2.677 9.476l.479.788-1.836 6.817z"/><path d="M54.34 47.003a3.78 3.78 0 0 0-1.531-.741c-.56-.127-1.142-.126-1.702.005-.84.349-1.384 1.666-1.927 2.324a.8.8 0 0 1-.473.311c-.191.043-.39.015-.561-.079-3.077-1.203-5.657-3.41-7.319-6.261-.142-.178-.209-.404-.187-.63a.88.88 0 0 1 .304-.583 5.06 5.06 0 0 0 1.293-2.156c.054-.9-.153-1.796-.595-2.582a6.04 6.04 0 0 0-1.875-2.827 2.59 2.59 0 0 0-2.78.426c-.647.557-1.161 1.253-1.503 2.035s-.505 1.631-.475 2.484a5.85 5.85 0 0 0 .181 1.42c.3 1.115.762 2.181 1.371 3.163a24.4 24.4 0 0 0 1.435 2.182c1.681 2.303 3.793 4.259 6.22 5.758a18.75 18.75 0 0 0 3.88 1.846 8.6 8.6 0 0 0 4.513.71c.878-.133 1.71-.479 2.422-1.008a5.41 5.41 0 0 0 1.664-2.026 2.58 2.58 0 0 0 .194-1.549c-.233-1.072-1.668-1.704-2.547-2.221z" fill-rule="evenodd"/></g></svg>